<svg id="visual" viewBox="0 0 960 150" width="960" height="150" xmlns="http://www.w3.org/2000/svg" xmlns:xlink="http://www.w3.org/1999/xlink" version="1.1"><rect x="0" y="0" width="960" height="200" fill="#001220"></rect><path d="M0 90L13.3 88.8C26.7 87.7 53.3 85.3 80 80.7C106.7 76 133.3 69 160 69.5C186.7 70 213.3 78 240 79.7C266.7 81.3 293.3 76.7 320 70.8C346.7 65 373.3 58 400 56.7C426.7 55.3 453.3 59.7 480 64C506.7 68.3 533.3 72.7 560 69.2C586.7 65.7 613.3 54.3 640 48.2C666.7 42 693.3 41 720 42.8C746.7 44.7 773.3 49.3 800 49.7C826.7 50 853.3 46 880 44.3C906.7 42.7 933.3 43.3 946.7 43.7L960 44L960 201L946.7 201C933.3 201 906.7 201 880 201C853.3 201 826.7 201 800 201C773.3 201 746.7 201 720 201C693.3 201 666.7 201 640 201C613.3 201 586.7 201 560 201C533.3 201 506.7 201 480 201C453.3 201 426.7 201 400 201C373.3 201 346.7 201 320 201C293.3 201 266.7 201 240 201C213.3 201 186.7 201 160 201C133.3 201 106.7 201 80 201C53.3 201 26.7 201 13.3 201L0 201Z" fill="#0066ff"></path><path d="M0 104L13.3 103.5C26.7 103 53.3 102 80 94C106.7 86 133.3 71 160 67.8C186.7 64.7 213.3 73.3 240 78.5C266.7 83.7 293.3 85.3 320 86.8C346.7 88.3 373.3 89.7 400 83.7C426.7 77.7 453.3 64.3 480 58.3C506.7 52.3 533.3 53.7 560 53.3C586.7 53 613.3 51 640 50.3C666.7 49.7 693.3 50.3 720 50.5C746.7 50.7 773.3 50.3 800 53C826.7 55.7 853.3 61.3 880 69.3C906.7 77.3 933.3 87.7 946.7 92.8L960 98L960 201L946.7 201C933.3 201 906.7 201 880 201C853.3 201 826.7 201 800 201C773.3 201 746.7 201 720 201C693.3 201 666.7 201 640 201C613.3 201 586.7 201 560 201C533.3 201 506.7 201 480 201C453.3 201 426.7 201 400 201C373.3 201 346.7 201 320 201C293.3 201 266.7 201 240 201C213.3 201 186.7 201 160 201C133.3 201 106.7 201 80 201C53.3 201 26.7 201 13.3 201L0 201Z" fill="#0075ff"></path><path d="M0 93L13.3 93.7C26.7 94.3 53.3 95.7 80 95.8C106.7 96 133.3 95 160 97.3C186.7 99.7 213.3 105.3 240 107.2C266.7 109 293.3 107 320 103.2C346.7 99.3 373.3 93.7 400 88.5C426.7 83.3 453.3 78.7 480 80.3C506.7 82 533.3 90 560 93.8C586.7 97.7 613.3 97.3 640 97.3C666.7 97.3 693.3 97.7 720 95.7C746.7 93.7 773.3 89.3 800 91.3C826.7 93.3 853.3 101.7 880 100.2C906.7 98.7 933.3 87.3 946.7 81.7L960 76L960 201L946.7 201C933.3 201 906.7 201 880 201C853.3 201 826.7 201 800 201C773.3 201 746.7 201 720 201C693.3 201 666.7 201 640 201C613.3 201 586.7 201 560 201C533.3 201 506.7 201 480 201C453.3 201 426.7 201 400 201C373.3 201 346.7 201 320 201C293.3 201 266.7 201 240 201C213.3 201 186.7 201 160 201C133.3 201 106.7 201 80 201C53.3 201 26.7 201 13.3 201L0 201Z" fill="#0082ff"></path><path d="M0 94L13.3 94.3C26.7 94.7 53.3 95.3 80 99.2C106.7 103 133.3 110 160 114.3C186.7 118.7 213.3 120.3 240 120C266.7 119.7 293.3 117.3 320 118.7C346.7 120 373.3 125 400 126.7C426.7 128.3 453.3 126.7 480 124.7C506.7 122.7 533.3 120.3 560 119.5C586.7 118.7 613.3 119.3 640 114.7C666.7 110 693.3 100 720 95.8C746.7 91.7 773.3 93.3 800 94.3C826.7 95.3 853.3 95.7 880 97.5C906.7 99.3 933.3 102.7 946.7 104.3L960 106L960 201L946.7 201C933.3 201 906.7 201 880 201C853.3 201 826.7 201 800 201C773.3 201 746.7 201 720 201C693.3 201 666.7 201 640 201C613.3 201 586.7 201 560 201C533.3 201 506.7 201 480 201C453.3 201 426.7 201 400 201C373.3 201 346.7 201 320 201C293.3 201 266.7 201 240 201C213.3 201 186.7 201 160 201C133.3 201 106.7 201 80 201C53.3 201 26.7 201 13.3 201L0 201Z" fill="#008fff"></path><path d="M0 137L13.3 136.5C26.7 136 53.3 135 80 135.8C106.7 136.7 133.3 139.3 160 139.2C186.7 139 213.3 136 240 136.2C266.7 136.3 293.3 139.7 320 138.2C346.7 136.7 373.3 130.3 400 129.8C426.7 129.3 453.3 134.7 480 137C506.7 139.3 533.3 138.7 560 133.8C586.7 129 613.3 120 640 119C666.7 118 693.3 125 720 126.3C746.7 127.7 773.3 123.3 800 124.8C826.7 126.3 853.3 133.7 880 135.5C906.7 137.3 933.3 133.7 946.7 131.8L960 130L960 201L946.7 201C933.3 201 906.7 201 880 201C853.3 201 826.7 201 800 201C773.3 201 746.7 201 720 201C693.3 201 666.7 201 640 201C613.3 201 586.7 201 560 201C533.3 201 506.7 201 480 201C453.3 201 426.7 201 400 201C373.3 201 346.7 201 320 201C293.3 201 266.7 201 240 201C213.3 201 186.7 201 160 201C133.3 201 106.7 201 80 201C53.3 201 26.7 201 13.3 201L0 201Z" fill="#149bff"></path><path d="M0 150L13.3 150.7C26.7 151.3 53.3 152.7 80 151.5C106.7 150.3 133.3 146.7 160 145C186.7 143.3 213.3 143.7 240 146.3C266.7 149 293.3 154 320 153.2C346.7 152.3 373.3 145.7 400 141.8C426.7 138 453.3 137 480 138.3C506.7 139.7 533.3 143.3 560 144.3C586.7 145.3 613.3 143.7 640 145.8C666.7 148 693.3 154 720 154.5C746.7 155 773.3 150 800 144.8C826.7 139.7 853.3 134.3 880 134.5C906.7 134.7 933.3 140.3 946.7 143.2L960 146L960 201L946.7 201C933.3 201 906.7 201 880 201C853.3 201 826.7 201 800 201C773.3 201 746.7 201 720 201C693.3 201 666.7 201 640 201C613.3 201 586.7 201 560 201C533.3 201 506.7 201 480 201C453.3 201 426.7 201 400 201C373.3 201 346.7 201 320 201C293.3 201 266.7 201 240 201C213.3 201 186.7 201 160 201C133.3 201 106.7 201 80 201C53.3 201 26.7 201 13.3 201L0 201Z" fill="#30a6ff"></path><path d="M0 155L13.3 155.2C26.7 155.3 53.3 155.7 80 156.5C106.7 157.3 133.3 158.7 160 161.3C186.7 164 213.3 168 240 165.8C266.7 163.7 293.3 155.3 320 152.2C346.7 149 373.3 151 400 153.7C426.7 156.3 453.3 159.7 480 162.2C506.7 164.7 533.3 166.3 560 168C586.7 169.7 613.3 171.3 640 172.2C666.7 173 693.3 173 720 172.3C746.7 171.7 773.3 170.3 800 167.3C826.7 164.3 853.3 159.7 880 157.5C906.7 155.3 933.3 155.7 946.7 155.8L960 156L960 201L946.7 201C933.3 201 906.7 201 880 201C853.3 201 826.7 201 800 201C773.3 201 746.7 201 720 201C693.3 201 666.7 201 640 201C613.3 201 586.7 201 560 201C533.3 201 506.7 201 480 201C453.3 201 426.7 201 400 201C373.3 201 346.7 201 320 201C293.3 201 266.7 201 240 201C213.3 201 186.7 201 160 201C133.3 201 106.7 201 80 201C53.3 201 26.7 201 13.3 201L0 201Z" fill="#46b1ff"></path><path d="M0 174L13.3 173.7C26.7 173.3 53.3 172.7 80 173.7C106.7 174.7 133.3 177.3 160 179.5C186.7 181.7 213.3 183.3 240 184.3C266.7 185.3 293.3 185.7 320 184.2C346.7 182.7 373.3 179.3 400 176C426.7 172.7 453.3 169.3 480 171.2C506.7 173 533.3 180 560 183.5C586.7 187 613.3 187 640 186.5C666.7 186 693.3 185 720 183.5C746.7 182 773.3 180 800 180C826.7 180 853.3 182 880 183.2C906.7 184.3 933.3 184.7 946.7 184.8L960 185L960 201L946.7 201C933.3 201 906.7 201 880 201C853.3 201 826.7 201 800 201C773.3 201 746.7 201 720 201C693.3 201 666.7 201 640 201C613.3 201 586.7 201 560 201C533.3 201 506.7 201 480 201C453.3 201 426.7 201 400 201C373.3 201 346.7 201 320 201C293.3 201 266.7 201 240 201C213.3 201 186.7 201 160 201C133.3 201 106.7 201 80 201C53.3 201 26.7 201 13.3 201L0 201Z" fill="#5cbbff"></path></svg>